<svg width="36" height="36" viewBox="0 0 36 36" fill="none" xmlns="http://www.w3.org/2000/svg">
<path d="M23.8466 22.5844C24.6974 22.1273 25.6712 21.8672 26.7083 21.8672H26.7118C26.8173 21.8672 26.8665 21.7406 26.7892 21.6703C25.7106 20.7024 24.4786 19.9206 23.1434 19.357C23.1294 19.35 23.1153 19.3465 23.1013 19.3395C25.2845 17.7539 26.7048 15.177 26.7048 12.2695C26.7048 7.45312 22.8095 3.55078 18.0036 3.55078C13.1977 3.55078 9.30595 7.45312 9.30595 12.2695C9.30595 15.177 10.7263 17.7539 12.913 19.3395C12.8989 19.3465 12.8849 19.35 12.8708 19.357C11.2993 20.0215 9.88954 20.9742 8.67665 22.1906C7.47076 23.3943 6.51072 24.8213 5.85009 26.3918C5.20009 27.9298 4.8493 29.5775 4.81649 31.2469C4.81556 31.2844 4.82214 31.3217 4.83585 31.3567C4.84956 31.3916 4.87013 31.4234 4.89634 31.4503C4.92255 31.4772 4.95388 31.4985 4.98847 31.5131C5.02305 31.5277 5.06021 31.5352 5.09774 31.5352H7.2036C7.35478 31.5352 7.48134 31.4121 7.48485 31.2609C7.55517 28.5469 8.64149 26.0051 10.5645 24.0785C12.5509 22.0852 15.1946 20.9883 18.0071 20.9883C20.0005 20.9883 21.913 21.5402 23.5618 22.5738C23.6042 22.6004 23.6528 22.6154 23.7028 22.6173C23.7528 22.6191 23.8024 22.6078 23.8466 22.5844ZM18.0071 18.3164C16.397 18.3164 14.8817 17.6871 13.7392 16.5445C13.177 15.9838 12.7313 15.3174 12.4278 14.5837C12.1243 13.85 11.969 13.0635 11.9708 12.2695C11.9708 10.6559 12.6001 9.13711 13.7392 7.99453C14.8782 6.85195 16.3934 6.22266 18.0071 6.22266C19.6208 6.22266 21.1325 6.85195 22.2751 7.99453C22.8373 8.55524 23.2829 9.22164 23.5864 9.95534C23.8899 10.689 24.0452 11.4755 24.0434 12.2695C24.0434 13.8832 23.4142 15.402 22.2751 16.5445C21.1325 17.6871 19.6173 18.3164 18.0071 18.3164ZM30.9376 26.6836H27.9845V23.7305C27.9845 23.5758 27.8579 23.4492 27.7032 23.4492H25.7345C25.5798 23.4492 25.4532 23.5758 25.4532 23.7305V26.6836H22.5001C22.3454 26.6836 22.2188 26.8102 22.2188 26.9648V28.9336C22.2188 29.0883 22.3454 29.2148 22.5001 29.2148H25.4532V32.168C25.4532 32.3227 25.5798 32.4492 25.7345 32.4492H27.7032C27.8579 32.4492 27.9845 32.3227 27.9845 32.168V29.2148H30.9376C31.0923 29.2148 31.2188 29.0883 31.2188 28.9336V26.9648C31.2188 26.8102 31.0923 26.6836 30.9376 26.6836Z" fill="white"/>
</svg>
