<svg width="36" height="36" viewBox="0 0 36 36" fill="none" xmlns="http://www.w3.org/2000/svg">
<g clip-path="url(#clip0_1_89)">
<path d="M24.9609 2C25.3871 2.00006 25.7985 2.15654 26.1171 2.43978C26.4356 2.72302 26.6391 3.11331 26.689 3.53662L26.7011 3.74022V5.48045H30.1816C31.0597 5.48017 31.9054 5.8118 32.5492 6.40885C33.1931 7.0059 33.5875 7.82426 33.6533 8.69986L33.662 8.96089V29.8436C33.6623 30.7216 33.3307 31.5674 32.7336 32.2112C32.1366 32.8551 31.3182 33.2495 30.4426 33.3153L30.1816 33.324H5.81846C4.94038 33.3243 4.09465 32.9927 3.4508 32.3956C2.80695 31.7986 2.41257 30.9802 2.34671 30.1046L2.33801 29.8436V8.96089C2.33773 8.08282 2.66936 7.23708 3.26642 6.59324C3.86347 5.94938 4.68182 5.555 5.55743 5.48915L5.81846 5.48045H9.2989V3.74022C9.2994 3.29668 9.46924 2.87006 9.77372 2.54753C10.0782 2.225 10.4944 2.03092 10.9371 2.00492C11.3799 1.97893 11.8159 2.12299 12.1561 2.40767C12.4962 2.69236 12.7148 3.09617 12.7672 3.53662L12.7794 3.74022V5.48045H23.2207V3.74022C23.2207 3.27869 23.404 2.83605 23.7304 2.5097C24.0567 2.18334 24.4994 2 24.9609 2ZM30.1816 17.662H5.81846V29.8436H30.1816V17.662ZM30.1816 8.96089H5.81846V14.1816H30.1816V8.96089Z" fill="white"/>
</g>
<defs>
<clipPath id="clip0_1_89">
<rect width="36" height="36" fill="white"/>
</clipPath>
</defs>
</svg>
